<svg width="20" height="20" viewBox="0 0 20 20" fill="none" xmlns="http://www.w3.org/2000/svg">
<path d="M4.71217 1.85582C4.35134 1.94999 4.11967 2.08332 3.93884 2.25999C3.68467 2.50999 3.51884 2.85999 3.42801 3.52082C3.33467 4.20166 3.33301 5.10332 3.33301 6.39582V13.5375C3.66299 13.3122 4.02911 13.145 4.41551 13.0433C4.51309 13.0174 4.61216 12.9973 4.71217 12.9833V1.85582ZM6.09134 12.9283H16.6663V6.39666C16.6663 5.10332 16.6647 4.20166 16.5713 3.52082C16.4805 2.85999 16.3147 2.50999 16.0605 2.25999C15.8055 2.01082 15.4488 1.84832 14.7738 1.75999C14.0788 1.66832 13.1588 1.66666 11.8388 1.66666H8.16051C7.32551 1.66666 6.65051 1.66666 6.09134 1.69082V12.9283ZM6.22717 14.2792C5.32801 14.2792 5.01384 14.285 4.77217 14.3483C4.45019 14.4313 4.15321 14.5913 3.90684 14.8145C3.66048 15.0378 3.47212 15.3177 3.35801 15.63C3.37079 15.9472 3.39412 16.2303 3.42801 16.4792C3.51884 17.14 3.68467 17.49 3.93884 17.74C4.19384 17.9892 4.55051 18.1517 5.22551 18.24C5.92051 18.3317 6.84051 18.3333 8.16051 18.3333H11.8388C13.1588 18.3333 14.0788 18.3317 14.7738 18.2408C15.4488 18.1517 15.8055 17.9892 16.0605 17.74C16.3147 17.49 16.4805 17.14 16.5713 16.4792C16.648 15.9242 16.663 15.2208 16.6655 14.2792H6.22717Z" fill="#118BE8"/>
</svg>
