<svg width="20" height="20" viewBox="0 0 20 20" fill="none" xmlns="http://www.w3.org/2000/svg">
<path fill-rule="evenodd" clip-rule="evenodd" d="M18.3337 10C18.3337 14.6025 14.6028 18.3334 10.0003 18.3334C8.667 18.3334 7.407 18.02 6.29034 17.4634C5.99545 17.3106 5.65482 17.2712 5.33284 17.3525L3.47784 17.8492C3.29423 17.8982 3.10096 17.898 2.91744 17.8487C2.73392 17.7994 2.5666 17.7027 2.43226 17.5683C2.29793 17.4339 2.20132 17.2665 2.15213 17.0829C2.10294 16.8994 2.10289 16.7061 2.152 16.5225L2.64784 14.6675C2.72872 14.3457 2.689 14.0054 2.53617 13.7109C1.96253 12.5581 1.66496 11.2876 1.667 10C1.667 5.39752 5.39784 1.66669 10.0003 1.66669C14.6028 1.66669 18.3337 5.39752 18.3337 10ZM10.0003 6.04169C10.1661 6.04169 10.3251 6.10753 10.4423 6.22475C10.5595 6.34196 10.6253 6.50093 10.6253 6.66669V13.3334C10.6253 13.4991 10.5595 13.6581 10.4423 13.7753C10.3251 13.8925 10.1661 13.9584 10.0003 13.9584C9.83458 13.9584 9.6756 13.8925 9.55839 13.7753C9.44118 13.6581 9.37534 13.4991 9.37534 13.3334V6.66669C9.37534 6.50093 9.44118 6.34196 9.55839 6.22475C9.6756 6.10753 9.83458 6.04169 10.0003 6.04169ZM7.292 8.33335C7.292 8.16759 7.22615 8.00862 7.10894 7.89141C6.99173 7.7742 6.83276 7.70835 6.667 7.70835C6.50124 7.70835 6.34227 7.7742 6.22506 7.89141C6.10785 8.00862 6.042 8.16759 6.042 8.33335V11.6667C6.042 11.8324 6.10785 11.9914 6.22506 12.1086C6.34227 12.2258 6.50124 12.2917 6.667 12.2917C6.83276 12.2917 6.99173 12.2258 7.10894 12.1086C7.22615 11.9914 7.292 11.8324 7.292 11.6667V8.33335ZM13.3337 7.70835C13.4994 7.70835 13.6584 7.7742 13.7756 7.89141C13.8928 8.00862 13.9587 8.16759 13.9587 8.33335V11.6667C13.9587 11.8324 13.8928 11.9914 13.7756 12.1086C13.6584 12.2258 13.4994 12.2917 13.3337 12.2917C13.1679 12.2917 13.0089 12.2258 12.8917 12.1086C12.7745 11.9914 12.7087 11.8324 12.7087 11.6667V8.33335C12.7087 8.16759 12.7745 8.00862 12.8917 7.89141C13.0089 7.7742 13.1679 7.70835 13.3337 7.70835Z" fill="#AFB3BB"/>
</svg>
