<svg width="20" height="20" viewBox="0 0 20 20" fill="none" xmlns="http://www.w3.org/2000/svg">
<path d="M5.83301 4.025C5.83301 5.31416 7.27134 6.67333 8.45801 7.575C9.12384 8.08 9.45634 8.33333 9.99967 8.33333C10.543 8.33333 10.8755 8.08 11.5413 7.575C12.728 6.6725 14.1663 5.31333 14.1663 4.025C14.1663 1.7 11.8747 0.830831 9.99967 2.6275C8.12467 0.830831 5.83301 1.7 5.83301 4.025ZM5.21634 17.8233H4.99967C4.21384 17.8233 3.82134 17.8233 3.57717 17.5792C3.33301 17.3367 3.33301 16.9433 3.33301 16.1575V15.2308C3.33301 14.7992 3.33301 14.5833 3.44384 14.39C3.55467 14.1967 3.72217 14.1 4.05717 13.905C6.26217 12.6225 9.39301 11.9008 11.4822 13.1467C11.6227 13.2306 11.7477 13.3328 11.8572 13.4533C11.9693 13.5759 12.0557 13.7197 12.1113 13.8762C12.1668 14.0328 12.1904 14.1989 12.1806 14.3647C12.1708 14.5305 12.1279 14.6927 12.0543 14.8416C11.9807 14.9905 11.8779 15.1232 11.7522 15.2317C11.652 15.3268 11.5297 15.3955 11.3963 15.4317C11.4963 15.42 11.5922 15.4069 11.6838 15.3925C12.443 15.2717 13.0805 14.865 13.6638 14.4242L15.1705 13.2867C15.4394 13.0915 15.7632 12.9864 16.0955 12.9864C16.4278 12.9864 16.7516 13.0915 17.0205 13.2867C17.498 13.6475 17.6447 14.2417 17.3422 14.7267C16.9897 15.2917 16.493 16.0142 16.0163 16.4558C15.5397 16.8975 14.828 17.2925 14.248 17.5725C13.6047 17.8833 12.8947 18.0617 12.1722 18.1792C10.7072 18.4158 9.18051 18.3792 7.73051 18.0808C6.90328 17.9106 6.06092 17.8237 5.21634 17.8233Z" fill="#35C220"/>
</svg>
