<svg width="20" height="20" viewBox="0 0 20 20" fill="none" xmlns="http://www.w3.org/2000/svg">
<path d="M2.29615 12.2633L2.72699 13.8733C3.23032 15.7525 3.48282 16.6925 4.05365 17.3017C4.50419 17.7823 5.08706 18.1187 5.72865 18.2683C6.54199 18.4583 7.48199 18.2067 9.36199 17.7033C11.2403 17.2 12.1803 16.9483 12.7895 16.3775C12.84 16.3297 12.8889 16.2808 12.9362 16.2308C12.6523 16.2053 12.3702 16.1635 12.0912 16.1058C11.5112 15.9908 10.822 15.8058 10.007 15.5875L9.91782 15.5633L9.89699 15.5583C9.01032 15.32 8.26949 15.1217 7.67782 14.9083C7.05532 14.6833 6.49032 14.4058 6.00949 13.9558C5.34809 13.3362 4.88525 12.5343 4.67949 11.6517C4.52949 11.0108 4.57282 10.3825 4.68949 9.73168C4.80115 9.10751 5.00115 8.35918 5.24115 7.46335L5.68699 5.80168L5.70199 5.74335C4.10199 6.17418 3.25949 6.42918 2.69782 6.95501C2.21656 7.40589 1.87986 7.98939 1.73032 8.63168C1.54032 9.44418 1.79199 10.3842 2.29615 12.2633Z" fill="#7B5CFA"/>
<path fill-rule="evenodd" clip-rule="evenodd" d="M17.358 8.92918L16.9263 10.5392C16.4222 12.4183 16.1705 13.3583 15.5997 13.9675C15.1492 14.4485 14.5664 14.7852 13.9247 14.935C13.8441 14.9539 13.7622 14.9683 13.6788 14.9783C12.9163 15.0725 11.9855 14.8233 10.2922 14.37C8.413 13.8658 7.473 13.6142 6.86384 13.0433C6.38272 12.5927 6.04603 12.0095 5.89634 11.3675C5.70634 10.5542 5.958 9.61501 6.46217 7.73585L6.893 6.12585L7.09634 5.37168C7.4755 3.98335 7.7305 3.21918 8.21967 2.69668C8.67021 2.21601 9.25308 1.87963 9.89467 1.73001C10.708 1.54001 11.648 1.79168 13.528 2.29585C15.4063 2.79918 16.3463 3.05085 16.9555 3.62085C17.4368 4.07173 17.7735 4.65523 17.923 5.29751C18.113 6.11085 17.8613 7.05001 17.358 8.92918ZM9.20884 8.17085C9.23011 8.09155 9.26679 8.01723 9.31679 7.95211C9.36679 7.887 9.42914 7.83237 9.50025 7.79136C9.57137 7.75034 9.64987 7.72374 9.73128 7.71307C9.81268 7.70241 9.89538 7.70788 9.97467 7.72918L13.9997 8.80835C14.081 8.82764 14.1577 8.86308 14.2252 8.91255C14.2926 8.96202 14.3494 9.02452 14.3923 9.09635C14.4351 9.16818 14.4631 9.24788 14.4746 9.33072C14.486 9.41356 14.4808 9.49787 14.4591 9.57864C14.4374 9.65941 14.3997 9.73501 14.3482 9.80094C14.2968 9.86688 14.2326 9.92183 14.1596 9.96252C14.0865 10.0032 14.006 10.0288 13.9229 10.0378C13.8397 10.0469 13.7556 10.0391 13.6755 10.015L9.6505 8.93668C9.49054 8.89371 9.35418 8.78901 9.27137 8.64557C9.18856 8.50214 9.16606 8.33086 9.20884 8.17085ZM8.56217 10.5867C8.60513 10.4267 8.70984 10.2904 8.85328 10.2075C8.99671 10.1247 9.16716 10.1022 9.32717 10.145L11.7422 10.7925C11.8239 10.8114 11.9011 10.8465 11.969 10.8959C12.0368 10.9452 12.0941 11.0077 12.1373 11.0796C12.1806 11.1515 12.2089 11.2314 12.2205 11.3145C12.2322 11.3976 12.227 11.4822 12.2053 11.5633C12.1836 11.6443 12.1458 11.7202 12.0941 11.7863C12.0424 11.8524 11.978 11.9075 11.9046 11.9482C11.8312 11.9888 11.7504 12.0143 11.6669 12.0231C11.5835 12.0319 11.4991 12.0237 11.4188 11.9992L9.00384 11.3525C8.92454 11.3312 8.85021 11.2946 8.7851 11.2446C8.71999 11.1946 8.66536 11.1322 8.62435 11.0611C8.58333 10.99 8.55673 10.9115 8.54606 10.8301C8.53539 10.7487 8.54087 10.666 8.56217 10.5867Z" fill="#7B5CFA"/>
</svg>
