<svg width="20" height="20" viewBox="0 0 20 20" fill="none" xmlns="http://www.w3.org/2000/svg">
<path d="M2.29567 12.2633L2.7265 13.8733C3.22983 15.7525 3.48233 16.6925 4.05316 17.3017C4.5037 17.7823 5.08657 18.1187 5.72817 18.2683C6.5415 18.4583 7.4815 18.2067 9.3615 17.7033C11.2398 17.2 12.1798 16.9483 12.789 16.3775C12.8396 16.3297 12.8884 16.2808 12.9357 16.2308C12.6519 16.2053 12.3697 16.1635 12.0907 16.1058C11.5107 15.9908 10.8215 15.8058 10.0065 15.5875L9.91733 15.5633L9.8965 15.5583C9.00983 15.32 8.269 15.1217 7.67733 14.9083C7.05483 14.6833 6.48983 14.4058 6.009 13.9558C5.3476 13.3362 4.88476 12.5343 4.679 11.6517C4.529 11.0108 4.57233 10.3825 4.689 9.73168C4.80066 9.10751 5.00066 8.35918 5.24066 7.46335L5.6865 5.80168L5.7015 5.74335C4.1015 6.17418 3.259 6.42918 2.69733 6.95501C2.21608 7.40589 1.87938 7.98939 1.72983 8.63168C1.53983 9.44418 1.7915 10.3842 2.29567 12.2633Z" fill="#AFB3BB"/>
<path fill-rule="evenodd" clip-rule="evenodd" d="M17.3585 8.92918L16.9268 10.5392C16.4227 12.4183 16.171 13.3583 15.6002 13.9675C15.1497 14.4485 14.5668 14.7852 13.9252 14.935C13.8446 14.9539 13.7627 14.9683 13.6793 14.9783C12.9168 15.0725 11.986 14.8233 10.2927 14.37C8.41349 13.8658 7.47349 13.6142 6.86432 13.0433C6.38321 12.5927 6.04652 12.0095 5.89682 11.3675C5.70682 10.5542 5.95849 9.61501 6.46266 7.73585L6.89349 6.12585L7.09682 5.37168C7.47599 3.98335 7.73099 3.21918 8.22016 2.69668C8.6707 2.21601 9.25356 1.87963 9.89516 1.73001C10.7085 1.54001 11.6485 1.79168 13.5285 2.29585C15.4068 2.79918 16.3468 3.05085 16.956 3.62085C17.4372 4.07173 17.7739 4.65523 17.9235 5.29751C18.1135 6.11085 17.8618 7.05001 17.3585 8.92918ZM9.20932 8.17085C9.23059 8.09155 9.26728 8.01723 9.31728 7.95211C9.36728 7.887 9.42962 7.83237 9.50074 7.79136C9.57186 7.75034 9.65036 7.72374 9.73176 7.71307C9.81317 7.70241 9.89587 7.70788 9.97516 7.72918L14.0002 8.80835C14.0815 8.82764 14.1582 8.86308 14.2256 8.91255C14.2931 8.96202 14.3499 9.02452 14.3927 9.09635C14.4356 9.16818 14.4636 9.24788 14.475 9.33072C14.4865 9.41356 14.4813 9.49787 14.4596 9.57864C14.4379 9.65941 14.4002 9.73501 14.3487 9.80094C14.2973 9.86688 14.2331 9.92183 14.16 9.96252C14.087 10.0032 14.0065 10.0288 13.9233 10.0378C13.8402 10.0469 13.7561 10.0391 13.676 10.015L9.65099 8.93668C9.49103 8.89371 9.35467 8.78901 9.27186 8.64557C9.18904 8.50214 9.16655 8.33086 9.20932 8.17085ZM8.56266 10.5867C8.60562 10.4267 8.71033 10.2904 8.85376 10.2075C8.9972 10.1247 9.16765 10.1022 9.32766 10.145L11.7427 10.7925C11.8244 10.8114 11.9016 10.8465 11.9694 10.8959C12.0373 10.9452 12.0946 11.0077 12.1378 11.0796C12.181 11.1515 12.2093 11.2314 12.221 11.3145C12.2327 11.3976 12.2275 11.4822 12.2058 11.5633C12.1841 11.6443 12.1463 11.7202 12.0946 11.7863C12.0429 11.8524 11.9785 11.9075 11.9051 11.9482C11.8317 11.9888 11.7509 12.0143 11.6674 12.0231C11.5839 12.0319 11.4996 12.0237 11.4193 11.9992L9.00432 11.3525C8.92503 11.3312 8.8507 11.2946 8.78559 11.2446C8.72047 11.1946 8.66585 11.1322 8.62484 11.0611C8.58382 10.99 8.55722 10.9115 8.54655 10.8301C8.53588 10.7487 8.54135 10.666 8.56266 10.5867Z" fill="#AFB3BB"/>
</svg>
