<svg width="20" height="20" viewBox="0 0 20 20" fill="none" xmlns="http://www.w3.org/2000/svg">
<path d="M6.75533 15.2058C4.41533 13.4025 1.66699 11.285 1.66699 7.61417C1.66699 3.56167 6.25033 0.687505 10.0003 4.58417L11.667 6.24917C11.7855 6.35957 11.9422 6.41967 12.1041 6.41682C12.266 6.41396 12.4205 6.34837 12.535 6.23386C12.6495 6.11935 12.7151 5.96486 12.718 5.80294C12.7208 5.64102 12.6607 5.48432 12.5503 5.36584L10.942 3.75501C14.4745 1.16917 18.3337 3.89584 18.3337 7.61417C18.3337 11.285 15.5853 13.4025 13.2453 15.2058C13.0009 15.3931 12.7631 15.5775 12.532 15.7592C11.667 16.4408 10.8337 17.0833 10.0003 17.0833C9.16699 17.0833 8.33366 16.4417 7.46866 15.7583C7.23699 15.5772 6.99921 15.3931 6.75533 15.2058Z" fill="#F03D3D"/>
</svg>
