<svg width="20" height="20" viewBox="0 0 20 20" fill="none" xmlns="http://www.w3.org/2000/svg">
<path fill-rule="evenodd" clip-rule="evenodd" d="M2.09984 6.51919C1.6665 7.30835 1.6665 8.26252 1.6665 10.1692V11.4375C1.6665 14.6875 1.6665 16.3134 2.64317 17.3234C3.61984 18.3334 5.19067 18.3334 8.33317 18.3334H11.6665C14.809 18.3334 16.3807 18.3334 17.3565 17.3234C18.3323 16.3134 18.3332 14.6884 18.3332 11.4375V10.17C18.3332 8.26252 18.3332 7.30919 17.8998 6.51919C17.4682 5.72835 16.6773 5.23835 15.0965 4.25669L13.4298 3.22252C11.759 2.18502 10.9232 1.66669 9.99984 1.66669C9.0765 1.66669 8.2415 2.18502 6.56984 3.22252L4.90317 4.25669C3.32234 5.23835 2.53234 5.72835 2.09984 6.51919ZM9.37484 15C9.37484 15.1658 9.44069 15.3248 9.5579 15.442C9.67511 15.5592 9.83408 15.625 9.99984 15.625C10.1656 15.625 10.3246 15.5592 10.4418 15.442C10.559 15.3248 10.6248 15.1658 10.6248 15V12.5C10.6248 12.3343 10.559 12.1753 10.4418 12.0581C10.3246 11.9409 10.1656 11.875 9.99984 11.875C9.83408 11.875 9.67511 11.9409 9.5579 12.0581C9.44069 12.1753 9.37484 12.3343 9.37484 12.5V15Z" fill="#AFB3BB"/>
</svg>
